<?xml version="1.0" encoding="UTF-8" standalone="no"?>
<svg
   width="24"
   height="24"
   viewBox="0 0 24 24"
   fill="currentColor"
   class="icon icon-tabler icons-tabler-filled icon-tabler-caret-down"
   version="1.1"
   id="svg6"
   sodipodi:docname="caret-down.svg"
   inkscape:version="1.2.2 (b0a8486541, 2022-12-01)"
   xmlns:inkscape="http://www.inkscape.org/namespaces/inkscape"
   xmlns:sodipodi="http://sodipodi.sourceforge.net/DTD/sodipodi-0.dtd"
   xmlns="http://www.w3.org/2000/svg"
   xmlns:svg="http://www.w3.org/2000/svg">
  <defs
     id="defs10" />
  <sodipodi:namedview
     id="namedview8"
     pagecolor="#ffffff"
     bordercolor="#000000"
     borderopacity="0.25"
     inkscape:showpageshadow="2"
     inkscape:pageopacity="0.0"
     inkscape:pagecheckerboard="0"
     inkscape:deskcolor="#d1d1d1"
     showgrid="false"
     inkscape:zoom="22.208333"
     inkscape:cx="7.4521576"
     inkscape:cy="12.045028"
     inkscape:window-width="1366"
     inkscape:window-height="710"
     inkscape:window-x="0"
     inkscape:window-y="26"
     inkscape:window-maximized="1"
     inkscape:current-layer="svg6" />
  <path
     stroke="none"
     d="M0 0h24v24H0z"
     fill="none"
     id="path2" />
  <path
     d="M18 9c.852 0 1.297 .986 .783 1.623l-.076 .084l-6 6a1 1 0 0 1 -1.32 .083l-.094 -.083l-6 -6l-.083 -.094l-.054 -.077l-.054 -.096l-.017 -.036l-.027 -.067l-.032 -.108l-.01 -.053l-.01 -.06l-.004 -.057v-.118l.005 -.058l.009 -.06l.01 -.052l.032 -.108l.027 -.067l.07 -.132l.065 -.09l.073 -.081l.094 -.083l.077 -.054l.096 -.054l.036 -.017l.067 -.027l.108 -.032l.053 -.01l.06 -.01l.057 -.004l12.059 -.002z"
     id="path4"
     style="fill:#b6b6b6;fill-opacity:1" />
</svg>
